<svg width="360" height="239" viewBox="0 0 360 239" fill="none" xmlns="http://www.w3.org/2000/svg">
<g clip-path="url(#clip0_296_2)">
<path d="M327.5 70C349.315 70 367 52.3152 367 30.5C367 8.68475 349.315 -9 327.5 -9C305.685 -9 288 8.68475 288 30.5C288 52.3152 305.685 70 327.5 70Z" fill="#A2D4DE"/>
<path d="M311.296 27.7944L305.276 31.1793L311.296 34.563C312.128 35.0313 312.545 35.8734 312.545 37.0885C312.545 37.8607 312.365 38.5367 312.006 39.1156C311.644 39.6964 311.198 39.9858 310.668 39.9858C310.421 39.9858 310.174 39.9177 309.929 39.7793L299.263 33.7841C298.239 33.2053 297.727 32.337 297.727 31.18C297.727 30.0223 298.239 29.1535 299.263 28.5748L309.929 22.5796C310.174 22.4423 310.421 22.3731 310.668 22.3731C311.198 22.3731 311.644 22.6631 312.006 23.2419C312.365 23.822 312.545 24.4986 312.545 25.2709C312.545 26.4839 312.128 27.3254 311.296 27.7944Z" fill="#5B4F3F"/>
<path d="M342.482 25.2695C342.482 24.4973 342.663 23.8206 343.022 23.2405C343.382 22.6618 343.828 22.3717 344.359 22.3717C344.606 22.3717 344.853 22.441 345.099 22.5782L355.765 28.5734C356.788 29.1522 357.3 30.0205 357.3 31.1787C357.3 32.335 356.788 33.2038 355.765 33.7827L345.099 39.7779C344.853 39.9164 344.606 39.9844 344.359 39.9844C343.829 39.9844 343.383 39.695 343.022 39.1143C342.663 38.5355 342.482 37.8594 342.482 37.0871C342.482 35.8721 342.898 35.0301 343.732 34.5616L349.751 31.178L343.732 27.793C342.898 27.3254 342.482 26.4839 342.482 25.2695Z" fill="#5B4F3F"/>
<path d="M330.249 43.1452C329.709 44.3228 328.316 44.838 327.139 44.2979C325.962 43.7578 325.447 42.365 325.987 41.188L336.703 17.8566C337.242 16.6791 338.634 16.1639 339.811 16.7039C340.99 17.244 341.505 18.6375 340.964 19.8132L330.249 43.1452Z" fill="#5B4F3F"/>
</g>
<g clip-path="url(#clip1_296_2)">
<path d="M78.1439 60.8297L81.532 60.5231L105.249 58.3772L108.637 58.0707C109.569 57.9864 110.394 58.6186 110.472 59.4757L110.613 61.034L110.754 62.5922L76.8728 65.6578L76.7318 64.0995L76.5908 62.5413C76.5133 61.6842 77.2122 60.914 78.1439 60.8297Z" fill="#AFB6BB"/>
<path d="M104.262 47.4692L80.545 49.6151L81.532 60.5231L105.249 58.3772L104.262 47.4692Z" fill="#E7ECED"/>
<path d="M127.138 -11.1581L130.945 30.9156L51.3241 38.1197L47.5173 -3.95395C47.4397 -4.81101 48.1386 -5.58121 49.0703 -5.66552L125.303 -12.5631C126.235 -12.6474 127.06 -12.0151 127.138 -11.1581Z" fill="#31C0D8"/>
<path d="M130.945 30.9156L132.073 43.3818C132.15 44.2389 131.451 45.0091 130.52 45.0934L104.262 47.4692L80.545 49.6151L54.2871 51.991C53.3554 52.0753 52.5296 51.443 52.4521 50.586L51.3241 38.1197L130.945 30.9156Z" fill="#AFB6BB"/>
<path d="M91.487 38.4134C93.3505 38.2447 95.002 39.5092 95.1571 41.2234C95.3122 42.9375 93.9144 44.4779 92.051 44.6465C90.1875 44.8151 88.536 43.5506 88.3809 41.8365C88.2258 40.1224 89.6235 38.582 91.487 38.4134Z" fill="#E7ECED"/>
<path d="M125.197 -13.7318L48.9646 -6.83422C47.33 -6.68632 46.1107 -5.34257 46.2467 -3.83898L51.1815 50.7009C51.3176 52.2045 52.7583 53.3076 54.3929 53.1597L79.3802 50.8988L80.1557 59.4694L78.0381 59.661C76.4035 59.8089 75.1842 61.1526 75.3203 62.6562L75.708 66.9415L112.13 63.646L111.742 59.3607C111.606 57.8571 110.166 56.7541 108.531 56.902L106.414 57.0936L105.638 48.523L130.625 46.2621C132.26 46.1142 133.479 44.7705 133.343 43.2669L128.409 -11.273C128.272 -12.7766 126.832 -13.8797 125.197 -13.7318ZM49.1761 -4.49679L125.409 -11.3944C125.638 -11.4151 125.848 -11.2543 125.867 -11.0431L129.569 29.8618L52.4889 36.836L48.7878 -4.0689C48.7687 -4.28005 48.9465 -4.47602 49.1761 -4.49679ZM109.201 59.5906L109.378 61.5385L78.0376 64.3742L77.8613 62.4263C77.8422 62.2152 78.0201 62.0192 78.2496 61.9984L108.743 59.2394C108.972 59.2186 109.182 59.3795 109.201 59.5906ZM82.6968 59.2395L81.9213 50.6689L103.097 48.7529L103.872 57.3235L82.6968 59.2395ZM130.414 43.9247L54.1814 50.8223C53.9518 50.843 53.7417 50.6822 53.7226 50.471L52.7004 39.1735L129.78 32.1993L130.802 43.4968C130.821 43.708 130.644 43.9039 130.414 43.9247Z" fill="#231F20"/>
<path d="M91.3812 37.2447C88.8125 37.4771 86.8965 39.5885 87.1103 41.9514C87.3241 44.3144 89.588 46.0476 92.1567 45.8152C94.7254 45.5828 96.6414 43.4714 96.4276 41.1084C96.2138 38.7454 93.9499 37.0122 91.3812 37.2447ZM91.9452 43.4778C90.7775 43.5834 89.7485 42.7957 89.6514 41.7215C89.5542 40.6474 90.425 39.6877 91.5927 39.5821C92.7604 39.4764 93.7893 40.2642 93.8865 41.3383C93.9837 42.4125 93.1129 43.3721 91.9452 43.4778Z" fill="#231F20"/>
</g>
<g clip-path="url(#clip2_296_2)">
<path d="M42.2215 209.235L38.968 221.886L30.2487 219.644L34.4875 203.161C35.0642 203.72 35.42 204.053 35.42 204.053C38.1121 205.785 40.3608 207.523 42.2215 209.235Z" fill="#31C0D8"/>
<path d="M51.1723 228.65C51.1723 228.65 50.531 231.144 49.7147 234.318L37.7256 231.235C38.9246 231.543 40.1678 230.775 40.4885 229.528L41.6547 224.994C41.9753 223.747 41.2568 222.474 40.0579 222.166L38.968 221.886L42.2215 209.235C53.4843 219.479 51.1723 228.65 51.1723 228.65Z" fill="#AFB6BB"/>
<path d="M34.4875 203.161L30.2487 219.644L-8.98812 209.553L-4.74924 193.07C-2.29816 192.395 3.21031 190.766 5.56181 189.123C5.56181 189.123 8.59458 195.946 15.0033 197.594C21.4119 199.242 27.36 194.729 27.36 194.729C28.627 197.302 32.6662 201.387 34.4875 203.161Z" fill="#AFB6BB"/>
<path d="M41.6546 224.994L40.4885 229.528C40.1678 230.775 38.9245 231.543 37.7256 231.235L-21.1295 216.1C-22.3285 215.791 -23.047 214.519 -22.7263 213.272L-21.5602 208.737C-21.2395 207.49 -19.9962 206.722 -18.7973 207.03L-17.7074 207.311L-8.9881 209.553L30.2487 219.644L38.968 221.886L40.0579 222.166C41.2568 222.474 41.9753 223.747 41.6546 224.994Z" fill="#31C0D8"/>
<path d="M43.7508 121.956L38.8822 140.888L21.4437 136.403L26.3123 117.471L26.9828 114.864L44.4214 119.349L43.7508 121.956Z" fill="#FFD147"/>
<path d="M56.3208 145.372L38.8823 140.888L43.7509 121.956C51.3852 127.062 56.1215 135.846 56.3208 145.372Z" fill="#FBB246"/>
<path d="M26.3122 117.471L21.4436 136.403L4.00507 131.918L4.0109 131.896C8.78151 123.647 17.1619 118.261 26.3122 117.471Z" fill="#FBB246"/>
<path d="M59.4381 155.843L51.8087 153.881L3.85266 141.548L-3.77672 139.586C-3.13535 137.092 0.517381 131.021 2.91518 131.638L4.00509 131.918L21.4437 136.403L38.8822 140.888L56.3208 145.372L57.4107 145.652C59.8085 146.269 60.0795 153.349 59.4381 155.843Z" fill="#FFD248"/>
<path d="M50.3511 159.549C53.9696 160.479 56.529 162.636 55.7244 165.765C54.9781 168.667 50.671 171.137 47.1699 170.744C47.7392 169.344 48.2112 167.87 48.6019 166.351L50.3511 159.549Z" fill="#EADECA"/>
<path d="M0.6458 154.018C0.255147 155.537 -0.0424826 157.056 -0.21946 158.557C-3.47574 157.212 -6.05692 152.971 -5.3106 150.069C-4.50597 146.94 -1.22351 146.285 2.39499 147.216L0.6458 154.018Z" fill="#EADECA"/>
<path d="M7.41595 181.913C10.1554 184.455 13.5726 186.349 17.627 187.391C21.6815 188.434 25.5885 188.423 29.2142 187.519L27.36 194.729C27.36 194.729 21.4119 199.242 15.0033 197.594C8.59458 195.946 5.56181 189.123 5.56181 189.123L7.41595 181.913Z" fill="#EADECA"/>
<path d="M7.41597 181.913C1.38663 176.35 -1.32213 167.725 -0.219454 158.557C-0.0424767 157.056 0.255152 155.537 0.645806 154.018L2.395 147.216L3.85266 141.548L51.8087 153.881L50.3511 159.549L48.6019 166.351C48.2112 167.87 47.7392 169.344 47.1699 170.744C43.713 179.306 37.1793 185.555 29.2142 187.519C25.5885 188.423 21.6815 188.434 17.6271 187.391C13.5726 186.349 10.1554 184.455 7.41597 181.913Z" fill="#EADECA"/>
<path d="M43.359 207.916C41.3859 206.101 39.0661 204.328 36.4618 202.644C36.3184 202.508 36.0374 202.241 35.6597 201.874C32.5618 198.858 30.204 196.152 29.174 194.453L30.5901 188.946C38.2263 186.711 44.573 180.809 48.2452 172.531C52.2847 172.378 56.4928 169.555 57.3593 166.186C58.2364 162.775 56.3535 159.878 52.3996 158.361L53.0063 156.002L60.6357 157.964L61.073 156.263C61.6359 154.074 61.975 145.181 57.9548 143.987C57.3844 134.817 52.8848 126.449 45.6919 121.186L46.4935 118.069L25.7852 112.743L24.9836 115.86C16.1324 117.001 8.14972 122.16 3.23437 129.915C-0.860227 129.033 -4.84899 136.978 -5.41158 139.165L-5.84888 140.866L1.78049 142.828L1.17375 145.187C-3.02135 144.608 -6.06836 146.238 -6.94546 149.648C-7.81196 153.018 -5.48805 157.521 -2.02331 159.604C-2.79977 168.63 -0.0869612 176.861 5.52199 182.5L4.10602 188.006C2.38401 188.998 -0.986061 190.23 -5.15185 191.377C-5.66678 191.518 -6.04486 191.617 -6.23442 191.666C-9.41373 191.913 -12.3077 192.363 -14.8242 193.001C-30.3399 196.789 -33.1746 206.487 -33.2878 206.898L-35.1907 214.296L50.9122 236.439L52.8093 229.062C52.9145 228.645 55.2463 218.728 43.359 207.916ZM40.3158 209.867L37.7704 219.765L32.3208 218.364L35.4567 206.17C37.2426 207.368 38.8692 208.606 40.3158 209.867ZM-3.37114 194.489C-0.923736 193.787 2.48089 192.702 4.89111 191.497C6.30079 193.827 9.4484 197.978 14.566 199.294C19.6835 200.61 24.4434 198.493 26.8023 197.132C28.3318 199.349 30.7897 201.941 32.596 203.738L29.0511 217.523L-6.91594 208.273L-3.37114 194.489ZM17.1898 189.092C20.4767 189.937 23.7332 190.147 26.903 189.728L25.8936 193.653C24.4627 194.582 20.0428 197.077 15.4406 195.893C10.868 194.718 8.17761 190.387 7.36601 188.885L8.3746 184.963C10.9502 186.86 13.9035 188.247 17.1898 189.092ZM54.0895 165.345C53.7323 166.734 51.8014 168.253 49.6499 168.813C49.8587 168.15 51.5205 161.779 51.5205 161.779C54.325 162.953 54.278 164.612 54.0895 165.345ZM54.4791 143.086L40.9544 139.608L44.7468 124.861C50.2165 129.308 53.7224 135.873 54.4791 143.086ZM28.1803 116.985L42.3492 120.629L37.6847 138.767L23.5158 135.123L28.1803 116.985ZM24.0386 119.535L20.2461 134.282L6.71355 130.802C10.8505 124.85 17.0921 120.792 24.0386 119.535ZM2.51472 133.348L56.9366 147.343C57.6103 147.834 58.1716 151.101 58.0417 153.671L-1.50575 138.357C-0.379704 136.043 1.68781 133.453 2.51472 133.348ZM-3.67573 150.489C-3.48729 149.757 -2.72831 148.281 0.294727 148.605C0.294727 148.605 -1.32319 154.988 -1.45992 155.669C-3.07463 154.141 -4.03292 151.878 -3.67573 150.489ZM1.46037 158.737C1.62052 157.378 1.89643 155.932 2.28067 154.438L5.05022 143.669L49.7366 155.161L46.967 165.93C46.5828 167.424 46.1268 168.824 45.6101 170.095C42.3081 178.273 36.1999 184.003 28.8472 185.817C25.38 186.681 21.752 186.639 18.0644 185.691C14.3765 184.742 11.1785 183.029 8.55536 180.596C2.99294 175.464 0.40675 167.498 1.46037 158.737ZM-7.0517 195.246L-10.1857 207.432L-15.6352 206.031L-13.0994 196.17C-11.2684 195.761 -9.24305 195.451 -7.0517 195.246ZM-30.0336 207.798C-29.893 207.335 -27.7077 200.732 -16.8472 197.188L-18.9166 205.235C-20.8332 205.037 -22.6821 206.322 -23.1951 208.317L-24.3612 212.851C-24.4108 213.044 -24.4413 213.237 -24.4634 213.429L-31.0464 211.736L-30.0336 207.798ZM-20.6923 214.399C-20.9876 214.323 -21.1705 213.999 -21.0915 213.692L-19.9253 209.158C-19.8463 208.85 -19.53 208.655 -19.2346 208.731L39.6206 223.867C39.9159 223.943 40.0988 224.266 40.0198 224.574L38.8536 229.108C38.7746 229.415 38.4583 229.611 38.1629 229.535L-20.6923 214.399ZM48.5171 232.197L41.934 230.505C42.0075 230.325 42.0737 230.142 42.1234 229.949L43.2895 225.414C43.8025 223.42 42.8028 221.402 41.0285 220.651L43.1137 212.543C51.0499 220.942 49.6242 227.848 49.5332 228.246L48.5171 232.197Z" fill="#231F20"/>
<path d="M21.2712 173.221L25.6308 174.342L26.5054 170.941L23.7807 170.24L25.6756 162.872L22.4059 162.031L20.0736 171.1C19.8321 172.039 20.3683 172.989 21.2712 173.221Z" fill="#231F20"/>
</g>
<g clip-path="url(#clip3_296_2)">
<path d="M354.946 163.128L346.995 164.084L347.927 171.838L355.879 170.881L354.946 163.128Z" fill="#FBB246"/>
<path d="M333.153 160.835L335.017 176.338L320.669 180.029L320.32 177.123L318.688 163.557L318.339 160.649L333.153 160.835Z" fill="#546A79"/>
<path d="M318.688 163.557L320.32 177.123L308.387 178.558L308.271 177.59L306.756 164.992L318.688 163.557Z" fill="#E7ECED"/>
<path d="M297.404 154.32L284.149 155.914L284.964 162.697L298.22 161.103L297.404 154.32Z" fill="#FBB246"/>
<path d="M306.756 164.992L308.271 177.59L293.69 179.343L279.106 181.097L275.494 151.057L304.658 147.549L305.474 154.332L306.756 164.992ZM298.219 161.103L297.403 154.32L284.147 155.914L284.963 162.697L298.219 161.103L298.219 161.103Z" fill="#E7ECED"/>
<path d="M367.781 146.839L372.326 184.631L357.742 186.385L355.878 170.882L354.945 163.128L353.197 148.593L367.781 146.839Z" fill="#546A79"/>
<path d="M360.001 193.977L304.32 200.673L305.719 212.302L361.4 205.606L360.001 193.977Z" fill="#E7ECED"/>
<path d="M372.006 204.33L373.404 215.959L296.514 225.206L295.115 213.577L305.72 212.302L361.401 205.605L372.006 204.33Z" fill="#AFB6BB"/>
<path d="M308.387 178.558L310.019 192.124L295.438 193.878L293.69 179.343L308.271 177.59L308.387 178.558Z" fill="#AFB6BB"/>
<path d="M293.69 179.343L279.106 181.097L280.854 195.632L295.438 193.878L293.69 179.343Z" fill="#AFB6BB"/>
<path d="M381.605 183.515L383.936 202.895L372.006 204.33L361.401 205.605L360.002 193.977L304.322 200.673L305.72 212.302L295.115 213.577L283.185 215.012L280.854 195.632L295.438 193.878L310.019 192.124L357.742 186.385L372.326 184.631L381.605 183.515Z" fill="#546A79"/>
<path d="M376.244 138.94L381.605 183.515L372.326 184.631L367.781 146.839L353.197 148.593L305.474 154.332L304.658 147.549L376.244 138.94Z" fill="#AFB6BB"/>
<path d="M273.327 149.84L281.368 216.708L293.298 215.273L294.697 226.901L375.571 217.175L374.173 205.547L386.103 204.112L378.061 137.245L273.327 149.84ZM306.825 148.766L374.428 140.636L379.438 182.299L374.143 182.935L369.598 145.144L307.29 152.637L306.825 148.766ZM281.273 182.313L291.873 181.039L293.271 192.661L282.671 193.936L281.273 182.313ZM295.857 180.56L306.454 179.285L307.851 190.908L297.255 192.182L295.857 180.56ZM318.153 175.907L310.204 176.863L308.922 166.209L316.872 165.253L318.153 175.907ZM310.554 179.775L318.503 178.819L318.888 182.013L337.155 177.314L334.998 159.381L316.137 159.144L316.522 162.341L308.572 163.297L307.641 155.549L351.38 150.289L352.778 161.911L344.826 162.868L346.109 173.533L354.061 172.577L355.575 185.168L311.835 190.429L310.554 179.775ZM322.452 178.045L320.54 162.154L331.307 162.289L332.879 175.363L322.452 178.045ZM353.711 169.665L349.743 170.142L349.16 165.301L353.128 164.823L353.711 169.665ZM355.364 149.81L365.964 148.535L370.158 183.415L359.559 184.689L355.364 149.81ZM302.841 149.245L306.104 176.373L280.923 179.401L277.661 152.273L302.841 149.245ZM371.237 214.742L298.331 223.51L297.282 214.794L370.189 206.026L371.237 214.742ZM359.234 204.389L307.537 210.606L306.489 201.89L358.186 195.672L359.234 204.389ZM381.769 201.679L363.218 203.91L361.819 192.281L302.155 199.457L303.553 211.085L285.002 213.316L283.021 196.848L379.788 185.211L381.769 201.679Z" fill="black"/>
<path d="M299.219 152.625L281.98 154.698L283.146 164.393L300.385 162.32L299.219 152.625ZM296.052 159.887L286.78 161.002L286.314 157.131L295.586 156.016L296.051 159.887L296.052 159.887Z" fill="black"/>
<path d="M292.116 166.259L282.837 167.375L283.187 170.287L292.466 169.171L292.116 166.259Z" fill="black"/>
<path d="M301.395 165.143L296.091 165.781L296.441 168.693L301.745 168.055L301.395 165.143Z" fill="black"/>
<path d="M292.815 172.073L283.536 173.189L283.886 176.101L293.166 174.985L292.815 172.073Z" fill="black"/>
<path d="M302.094 170.957L296.79 171.595L297.14 174.507L302.444 173.869L302.094 170.957Z" fill="black"/>
<path d="M352.574 199.292L312.802 204.075L313.152 206.987L352.924 202.204L352.574 199.292Z" fill="black"/>
<path d="M296.662 204.05L291.359 204.688L291.709 207.6L297.013 206.962L296.662 204.05Z" fill="black"/>
</g>
<g clip-path="url(#clip4_296_2)">
<path d="M179.361 118.001C179.798 118.224 180.09 118.715 180.066 119.272C180.042 119.828 179.709 120.292 179.254 120.476C179.301 120.485 179.349 120.491 179.398 120.494C180.035 120.521 180.577 119.983 180.607 119.295C180.637 118.607 180.143 118.024 179.507 117.996C179.457 117.994 179.409 117.997 179.361 118.001Z" fill="#71D1D1"/>
<path d="M180.066 119.272C180.09 118.715 179.798 118.225 179.361 118.001C178.789 118.054 178.325 118.56 178.297 119.195C178.27 119.83 178.689 120.375 179.254 120.477C179.709 120.292 180.042 119.828 180.066 119.272Z" fill="#A0E0E0"/>
<path d="M209.879 138.08C209.83 138.078 209.781 138.08 209.733 138.084C210.17 138.308 210.462 138.799 210.438 139.355C210.414 139.911 210.081 140.375 209.626 140.56C209.673 140.568 209.721 140.575 209.77 140.577C210.407 140.605 210.95 140.067 210.98 139.378C211.009 138.69 210.515 138.107 209.879 138.08Z" fill="#71D1D1"/>
<path d="M210.438 139.355C210.462 138.799 210.17 138.308 209.733 138.084C209.162 138.137 208.697 138.643 208.669 139.278C208.642 139.913 209.061 140.458 209.626 140.56C210.081 140.375 210.414 139.911 210.438 139.355Z" fill="#A0E0E0"/>
<path d="M196.54 178.784L186.262 178.338L186.153 180.835L196.432 181.281L196.54 178.784Z" fill="#71D1D1"/>
<path d="M186.262 178.338L170.339 177.647L170.23 180.144L186.154 180.835L186.262 178.338Z" fill="#A0E0E0"/>
<path d="M170.339 177.647L163.045 177.33L162.937 179.827L170.23 180.144L170.339 177.647Z" fill="#D0F0F0"/>
<path d="M164.37 119.844C164.038 127.484 163.549 138.764 163.391 142.398L168.024 142.599L168.19 138.772L165.88 138.672C165.242 138.644 164.75 138.063 164.78 137.373C164.809 136.684 165.351 136.147 165.989 136.175L168.299 136.275L169 120.123C169.239 114.616 165.754 109.865 160.953 108.7C162.542 110.539 164.62 114.075 164.37 119.844Z" fill="#71D1D1"/>
<path d="M163.391 142.398C163.549 138.764 164.038 127.484 164.37 119.844C164.62 114.076 162.543 110.539 160.953 108.701C160.352 108.555 159.731 108.462 159.092 108.434C158.423 108.405 157.766 108.448 157.125 108.552C155.552 109.997 153.619 112.694 153.289 117.361L153.467 117.369L154.748 117.424L154.065 133.155L152.784 133.1L152.637 133.093C152.597 133.984 152.557 134.848 152.519 135.671L161.365 136.055C162.003 136.082 162.496 136.664 162.466 137.353C162.436 138.043 161.894 138.58 161.257 138.552L152.402 138.168C152.327 139.747 152.264 141.047 152.222 141.913L163.391 142.398Z" fill="#A0E0E0"/>
<path d="M151.502 133.044L152.185 117.313L153.289 117.361C153.619 112.694 155.552 109.997 157.125 108.552C152.284 109.337 148.447 113.748 148.21 119.221L147.505 135.453L152.519 135.671C152.557 134.848 152.597 133.984 152.637 133.093L151.502 133.044Z" fill="#D0F0F0"/>
<path d="M152.402 138.168L147.397 137.95L147.234 141.696L152.222 141.913C152.264 141.047 152.327 139.747 152.402 138.168Z" fill="#D0F0F0"/>
<path d="M179.29 122.991C181.2 123.074 182.828 121.461 182.917 119.395C183.007 117.33 181.526 115.582 179.615 115.499C177.704 115.416 176.077 117.029 175.987 119.095C175.898 121.16 177.379 122.908 179.29 122.991ZM180.607 119.295C180.578 119.984 180.035 120.521 179.398 120.494C179.349 120.492 179.301 120.485 179.254 120.477C178.689 120.374 178.27 119.83 178.297 119.195C178.325 118.56 178.79 118.054 179.361 118.001C179.409 117.997 179.457 117.994 179.507 117.996C180.143 118.024 180.637 118.607 180.607 119.295Z" fill="black"/>
<path d="M209.987 135.583C208.076 135.5 206.449 137.112 206.36 139.178C206.27 141.244 207.751 142.992 209.662 143.075C211.573 143.158 213.2 141.545 213.29 139.479C213.379 137.413 211.898 135.665 209.987 135.583ZM209.77 140.577C209.721 140.575 209.673 140.569 209.626 140.56C209.061 140.458 208.642 139.914 208.67 139.278C208.697 138.643 209.162 138.137 209.734 138.085C209.781 138.08 209.83 138.078 209.879 138.08C210.516 138.108 211.01 138.69 210.98 139.379C210.95 140.067 210.407 140.605 209.77 140.577Z" fill="black"/>
<path d="M184.51 123.06L204.758 136.449C204.932 136.563 205.122 136.622 205.312 136.631C205.718 136.648 206.121 136.434 206.35 136.032C206.686 135.443 206.518 134.674 205.976 134.315L185.727 120.926C185.184 120.566 184.471 120.754 184.136 121.343C183.799 121.932 183.968 122.701 184.51 123.06Z" fill="black"/>
<path d="M197.804 176.337L161.998 174.783C161.361 174.755 160.819 175.292 160.789 175.981L160.572 180.976C160.543 181.665 161.035 182.247 161.673 182.274L197.325 183.822C197.375 183.831 197.426 183.837 197.478 183.84C198.116 183.867 198.657 183.331 198.687 182.641L198.904 177.636C198.934 176.946 198.441 176.364 197.804 176.337ZM196.432 181.281L186.153 180.835L170.23 180.144L162.937 179.827L163.045 177.33L170.338 177.647L186.262 178.338L196.54 178.784L196.432 181.281L196.432 181.281Z" fill="black"/>
<path d="M206.708 143.078C206.149 142.745 205.446 142.965 205.134 143.569L190.322 172.259L185.261 172.039C184.623 172.012 184.082 172.548 184.052 173.238C184.022 173.927 184.515 174.509 185.153 174.536L196.703 175.038C197.34 175.066 197.882 174.529 197.912 173.839C197.942 173.15 197.449 172.568 196.811 172.541L192.905 172.371L207.151 144.776C207.464 144.171 207.265 143.411 206.708 143.078Z" fill="black"/>
<path d="M170.28 143.948L171.31 120.223C171.311 120.196 171.31 120.17 171.311 120.143L173.623 120.243C174.261 120.271 174.802 119.734 174.832 119.045C174.862 118.355 174.369 117.774 173.732 117.746L171.194 117.636C170.35 111.242 165.391 106.205 159.201 105.937C152.195 105.633 146.229 111.547 145.9 119.12L144.87 142.845C144.84 143.534 145.333 144.116 145.971 144.144L169.071 145.146C169.708 145.174 170.25 144.637 170.28 143.948ZM147.397 137.95L152.402 138.168L161.257 138.552C161.895 138.58 162.436 138.043 162.466 137.353C162.496 136.664 162.003 136.082 161.365 136.055L152.519 135.671L147.505 135.453L148.21 119.221C148.447 113.748 152.284 109.337 157.125 108.552C157.766 108.448 158.423 108.405 159.092 108.434C159.731 108.462 160.352 108.555 160.953 108.701C165.754 109.866 169.239 114.617 169 120.123L168.299 136.275L165.989 136.175C165.351 136.147 164.809 136.684 164.78 137.373C164.75 138.063 165.243 138.644 165.88 138.672L168.19 138.772L168.024 142.599L163.391 142.398L152.222 141.913L147.234 141.696L147.397 137.95Z" fill="black"/>
<path d="M157.307 149.559C156.669 149.531 156.128 150.068 156.098 150.757L155.827 157.001C155.797 157.69 156.29 158.272 156.928 158.299C157.566 158.327 158.107 157.791 158.137 157.101L158.408 150.858C158.438 150.168 157.945 149.587 157.307 149.559Z" fill="black"/>
<path d="M165.664 155.598C165.879 155.902 166.2 156.068 166.53 156.082C166.792 156.094 167.059 156.009 167.284 155.823C167.792 155.4 167.89 154.616 167.503 154.07L163.998 149.126C163.612 148.58 162.886 148.48 162.378 148.901C161.87 149.323 161.772 150.108 162.159 150.654L165.664 155.598Z" fill="black"/>
<path d="M152.313 148.464C151.845 148.001 151.112 148.037 150.679 148.547L146.759 153.169C146.326 153.68 146.355 154.47 146.825 154.935C147.032 155.14 147.292 155.247 147.554 155.259C147.883 155.273 148.218 155.135 148.459 154.852L152.379 150.23C152.812 149.719 152.782 148.929 152.313 148.464Z" fill="black"/>
<path d="M156.949 104.507L161.569 104.708C162.207 104.735 162.748 104.199 162.778 103.509C162.808 102.82 162.315 102.238 161.677 102.21L157.057 102.01C156.419 101.982 155.878 102.519 155.848 103.208C155.818 103.898 156.311 104.479 156.949 104.507Z" fill="black"/>
<path d="M151.502 133.044L152.637 133.093L152.784 133.1L154.065 133.155L154.748 117.424L153.467 117.369L153.289 117.361L152.185 117.313L151.502 133.044Z" fill="white"/>
</g>
<defs>
<clipPath id="clip0_296_2">
<rect width="79" height="79" fill="white" transform="translate(288 -9)"/>
</clipPath>
<clipPath id="clip1_296_2">
<rect width="82.4974" height="75.8855" fill="white" transform="translate(46 -6.56598) rotate(-5.17007)"/>
</clipPath>
<clipPath id="clip2_296_2">
<rect width="109.161" height="113.54" fill="white" transform="translate(-16.7213 101.812) rotate(14.4221)"/>
</clipPath>
<clipPath id="clip3_296_2">
<rect width="108.162" height="79.0612" fill="white" transform="translate(272 150) rotate(-6.85766)"/>
</clipPath>
<clipPath id="clip4_296_2">
<rect width="74" height="80" fill="white" transform="translate(143.769 101.433) rotate(2.48538)"/>
</clipPath>
</defs>
</svg>
